<svg width="512" height="512" viewBox="0 0 512 512" fill="none" xmlns="http://www.w3.org/2000/svg">
<circle cx="256" cy="256" r="256" fill="#484A4A"/>
<path d="M240.457 245.164C240.088 235.213 242.668 225.631 248.197 217.891C245.248 217.154 241.931 217.154 238.246 217.154L227.926 217.891L199.179 263.224L212.815 353.151C215.395 369.736 230.506 381.161 247.091 379.687C248.934 379.318 250.408 379.318 252.251 378.95C249.671 373.79 248.197 368.262 247.828 362.365L240.457 245.164Z" fill="#F06292"/>
<path d="M350.655 310.767C358.763 307.45 367.609 305.607 377.191 305.607C381.614 305.607 385.668 305.976 389.722 306.713L397.83 254.747C400.41 237.056 387.51 220.102 369.451 218.628L357.289 217.523C353.972 217.154 350.286 217.523 347.338 218.26C352.866 226.368 355.446 235.95 355.078 245.533L350.655 310.767Z" fill="#F06292"/>
<path d="M331.859 322.561L336.65 244.059C337.387 230.054 326.33 217.891 312.325 217.891H303.848C305.323 204.255 308.64 188.407 311.219 181.036C313.799 174.77 292.792 173.665 291.318 180.667C289.843 186.195 287.263 203.149 286.158 217.891H282.841C268.836 217.891 257.41 229.685 258.516 244.059L265.519 360.891C266.256 373.79 277.312 383.741 289.843 383.741H304.585C305.691 383.741 306.797 383.741 307.902 383.372C307.534 380.793 307.165 377.844 307.165 375.264C307.534 354.257 317.116 335.092 331.859 322.561Z" fill="#F06292"/>
<path d="M156.058 133.123L209.867 154.131C210.604 154.5 212.078 154.868 212.815 155.605L241.931 127.595C246.354 123.541 244.88 115.801 239.351 113.59C238.246 113.222 237.14 112.853 236.034 112.853C234.56 112.853 233.455 113.222 231.98 113.959L204.339 129.438L211.71 95.5309C212.447 91.4768 210.236 87.4227 206.55 85.5799L205.444 85.2113C201.39 83.7371 197.336 85.2113 195.125 88.8969L177.434 119.118L167.483 88.8969C166.746 86.317 164.903 84.4742 162.323 83.7371C161.218 83.3686 160.112 83 159.006 83C154.584 83 150.161 87.0541 150.53 92.2139L153.11 132.386C154.215 132.386 155.321 132.755 156.058 133.123Z" fill="#F06292"/>
<path d="M132.102 252.167C133.945 247.744 139.104 245.164 143.896 247.007L180.751 261.749L216.501 206.835C225.346 193.198 219.818 174.77 204.339 168.873L150.53 147.866C135.419 141.969 118.465 151.183 115.885 167.399L114.043 177.719L163.06 196.884C167.483 198.726 170.063 203.886 168.22 208.677L167.483 209.783C166.009 213.469 162.692 215.311 159.006 215.311C157.901 215.311 156.795 215.311 155.689 214.943L110.357 197.252L94.8777 289.391L118.097 298.605C120.308 299.342 122.151 301.185 123.256 303.396C123.994 305.607 124.362 307.819 123.625 310.399L123.256 311.504C121.782 315.19 118.465 317.033 114.78 317.033C113.674 317.033 112.568 316.664 111.463 316.664H111.094L91.5607 308.924L81.2412 367.893C78.6613 382.267 97.4576 389.638 105.197 377.476L169.694 278.334L136.524 264.698C134.313 263.961 132.47 262.118 131.365 259.907C130.628 257.695 130.628 255.484 131.365 252.904L132.102 252.167Z" fill="#F06292"/>
<path d="M377.191 321.455C347.707 321.455 323.382 345.411 323.382 375.264C323.382 404.749 347.338 429.073 377.191 429.073C406.675 429.073 431 405.117 431 375.264C431 345.411 407.044 321.455 377.191 321.455ZM402.621 367.525L378.297 396.64C376.822 398.483 374.611 399.589 372.031 399.589C369.82 399.589 367.609 398.483 365.766 396.64L351.761 380.055C348.812 376.738 349.181 371.579 352.866 368.999C356.183 366.05 361.343 366.419 363.923 370.104L372.031 379.687L390.459 357.942C393.407 354.625 398.199 354.257 401.516 356.837C405.201 359.048 405.57 363.839 402.621 367.525Z" fill="#F06292"/>
</svg>
