<svg width="64" height="64" viewBox="0 0 64 64" fill="none" xmlns="http://www.w3.org/2000/svg">
<circle cx="32" cy="32" r="32" fill="#484A4A"/>
<path d="M30.0571 30.6455C30.0111 29.4017 30.3335 28.2039 31.0246 27.2364C30.656 27.1443 30.2414 27.1443 29.7807 27.1443L28.4908 27.2364L24.8973 32.9029L26.6019 44.1439C26.9244 46.217 28.8132 47.6451 30.8864 47.4609C31.1167 47.4148 31.301 47.4148 31.5313 47.3687C31.2089 46.7238 31.0246 46.0327 30.9785 45.2956L30.0571 30.6455Z" fill="#F06292"/>
<path d="M43.8319 38.8459C44.8454 38.4313 45.9511 38.2009 47.1489 38.2009C47.7017 38.2009 48.2085 38.247 48.7152 38.3391L49.7288 31.8433C50.0512 29.632 48.4388 27.5128 46.1814 27.3285L44.6611 27.1903C44.2465 27.1443 43.7858 27.1903 43.4172 27.2825C44.1083 28.296 44.4308 29.4938 44.3847 30.6916L43.8319 38.8459Z" fill="#F06292"/>
<path d="M41.4823 40.3201L42.0812 30.5073C42.1734 28.7567 40.7913 27.2364 39.0406 27.2364H37.981C38.1653 25.5318 38.58 23.5509 38.9024 22.6295C39.2249 21.8463 36.599 21.7081 36.4147 22.5834C36.2304 23.2744 35.9079 25.3936 35.7697 27.2364H35.3551C33.6045 27.2364 32.1763 28.7106 32.3145 30.5073L33.1898 45.1113C33.282 46.7238 34.6641 47.9676 36.2304 47.9676H38.0732C38.2114 47.9676 38.3496 47.9676 38.4878 47.9216C38.4417 47.5991 38.3957 47.2305 38.3957 46.908C38.4417 44.2821 39.6395 41.8865 41.4823 40.3201Z" fill="#F06292"/>
<path d="M19.5072 16.6404L26.2334 19.2664C26.3255 19.3125 26.5098 19.3585 26.6019 19.4507L30.2414 15.9494C30.7942 15.4426 30.61 14.4752 29.9189 14.1988C29.7807 14.1527 29.6425 14.1066 29.5043 14.1066C29.32 14.1066 29.1818 14.1527 28.9975 14.2448L25.5423 16.1797L26.4637 11.9414C26.5559 11.4346 26.2794 10.9278 25.8188 10.6975L25.6805 10.6514C25.1738 10.4671 24.667 10.6514 24.3906 11.1121L22.1793 14.8898L20.9354 11.1121C20.8433 10.7896 20.6129 10.5593 20.2904 10.4671C20.1522 10.4211 20.014 10.375 19.8758 10.375C19.323 10.375 18.7701 10.8818 18.8162 11.5267L19.1387 16.5483C19.2769 16.5483 19.4151 16.5944 19.5072 16.6404Z" fill="#F06292"/>
<path d="M16.5127 31.5209C16.7431 30.968 17.388 30.6455 17.9869 30.8759L22.5939 32.7187L27.0626 25.8543C28.1683 24.1498 27.4772 21.8463 25.5423 21.1092L18.8162 18.4832C16.9274 17.7461 14.8082 18.8978 14.4857 20.9249L14.2553 22.2148L20.3826 24.6105C20.9354 24.8408 21.2579 25.4858 21.0275 26.0847L20.9354 26.2229C20.7511 26.6836 20.3365 26.9139 19.8758 26.9139C19.7376 26.9139 19.5994 26.9139 19.4612 26.8679L13.7946 24.6565L11.8597 36.1739L14.7621 37.3256C15.0385 37.4177 15.2689 37.6481 15.4071 37.9245C15.4992 38.2009 15.5453 38.4773 15.4531 38.7998L15.4071 38.938C15.2228 39.3987 14.8082 39.6291 14.3475 39.6291C14.2093 39.6291 14.071 39.583 13.9328 39.583H13.8868L11.4451 38.6155L10.1551 45.9866C9.83266 47.7834 12.1822 48.7047 13.1497 47.1845L21.2118 34.7918L17.0656 33.0872C16.7891 32.9951 16.5588 32.7647 16.4206 32.4883C16.3284 32.2119 16.3284 31.9355 16.4206 31.613L16.5127 31.5209Z" fill="#F06292"/>
<path d="M47.1489 40.1819C43.4633 40.1819 40.4227 43.1764 40.4227 46.908C40.4227 50.5936 43.4172 53.6342 47.1489 53.6342C50.8344 53.6342 53.875 50.6397 53.875 46.908C53.875 43.1764 50.8805 40.1819 47.1489 40.1819ZM50.3277 45.9406L47.2871 49.5801C47.1028 49.8104 46.8264 49.9486 46.5039 49.9486C46.2275 49.9486 45.9511 49.8104 45.7207 49.5801L43.9701 47.5069C43.6015 47.0923 43.6476 46.4473 44.1083 46.1249C44.5229 45.7563 45.1679 45.8024 45.4904 46.2631L46.5039 47.4609L48.8074 44.7428C49.1759 44.3281 49.7748 44.2821 50.1894 44.6046C50.6501 44.881 50.6962 45.4799 50.3277 45.9406Z" fill="#F06292"/>
</svg>
