<svg width="192" height="192" viewBox="0 0 192 192" fill="none" xmlns="http://www.w3.org/2000/svg">
<circle cx="96" cy="96" r="96" fill="#484A4A"/>
<path d="M90.1714 91.9366C90.0332 88.205 91.0006 84.6116 93.0737 81.7092C91.9681 81.4328 90.7242 81.4328 89.3421 81.4328L85.4723 81.7092L74.692 98.7088L79.8058 132.432C80.7732 138.651 86.4397 142.935 92.6591 142.383C93.3502 142.244 93.903 142.244 94.594 142.106C93.6266 140.171 93.0737 138.098 92.9355 135.887L90.1714 91.9366Z" fill="#F06292"/>
<path d="M131.496 116.538C134.536 115.294 137.853 114.603 141.447 114.603C143.105 114.603 144.625 114.741 146.146 115.017L149.186 95.53C150.154 88.896 145.316 82.5384 138.544 81.9856L133.983 81.571C132.739 81.4328 131.357 81.571 130.252 81.8474C132.325 84.888 133.292 88.4814 133.154 92.0748L131.496 116.538Z" fill="#F06292"/>
<path d="M124.447 120.96L126.244 91.522C126.52 86.2701 122.374 81.7092 117.122 81.7092H113.943C114.496 76.5955 115.74 70.6526 116.707 67.8884C117.675 65.5389 109.797 65.1242 109.244 67.7502C108.691 69.8233 107.724 76.1809 107.309 81.7092H106.065C100.813 81.7092 96.5289 86.1319 96.9435 91.522L99.5695 135.334C99.8459 140.171 103.992 143.903 108.691 143.903H114.22C114.634 143.903 115.049 143.903 115.463 143.765C115.325 142.797 115.187 141.692 115.187 140.724C115.325 132.846 118.919 125.659 124.447 120.96Z" fill="#F06292"/>
<path d="M58.5217 49.9213L78.7001 57.7992C78.9765 57.9374 79.5294 58.0756 79.8058 58.352L90.7242 47.8482C92.3827 46.3279 91.8299 43.4255 89.7568 42.5963C89.3422 42.4581 88.9275 42.3199 88.5129 42.3199C87.9601 42.3199 87.5455 42.4581 86.9926 42.7345L76.627 48.5392L79.3912 35.8241C79.6676 34.3038 78.8383 32.7835 77.4563 32.0925L77.0416 31.9542C75.5213 31.4014 74.0011 31.9542 73.1718 33.3363L66.5378 44.6694L62.8062 33.3363C62.5298 32.3689 61.8387 31.6778 60.8713 31.4014C60.4567 31.2632 60.042 31.125 59.6274 31.125C57.9689 31.125 56.3104 32.6453 56.4486 34.5802L57.4161 49.6449C57.8307 49.6449 58.2453 49.7831 58.5217 49.9213Z" fill="#F06292"/>
<path d="M49.5382 94.5626C50.2292 92.9041 52.1641 91.9366 53.9608 92.6277L67.7817 98.156L81.1878 77.563C84.5048 72.4493 82.4317 65.5389 76.627 63.3275L56.4486 55.4497C50.7821 53.2383 44.4245 56.6935 43.457 62.7747L42.766 66.6445L61.1477 73.8314C62.8062 74.5224 63.7736 76.4573 63.0826 78.254L62.8062 78.6686C62.2533 80.0507 61.0095 80.7418 59.6274 80.7418C59.2128 80.7418 58.7981 80.7418 58.3835 80.6036L41.3839 73.9696L35.5791 108.522L44.2863 111.977C45.1155 112.253 45.8066 112.944 46.2212 113.774C46.4976 114.603 46.6358 115.432 46.3594 116.399L46.2212 116.814C45.6683 118.196 44.4245 118.887 43.0424 118.887C42.6278 118.887 42.2131 118.749 41.7985 118.749H41.6603L34.3353 115.847L30.4654 137.96C29.498 143.35 36.5466 146.114 39.449 141.553L63.6354 104.375L51.1967 99.2617C50.3674 98.9852 49.6764 98.2942 49.2618 97.465C48.9853 96.6357 48.9853 95.8065 49.2618 94.839L49.5382 94.5626Z" fill="#F06292"/>
<path d="M141.447 120.546C130.39 120.546 121.268 129.529 121.268 140.724C121.268 151.781 130.252 160.902 141.447 160.902C152.503 160.902 161.625 151.919 161.625 140.724C161.625 129.529 152.641 120.546 141.447 120.546ZM150.983 137.822L141.861 148.74C141.308 149.431 140.479 149.846 139.512 149.846C138.682 149.846 137.853 149.431 137.162 148.74L131.91 142.521C130.805 141.277 130.943 139.342 132.325 138.375C133.569 137.269 135.504 137.407 136.471 138.789L139.512 142.383L146.422 134.228C147.528 132.984 149.324 132.846 150.568 133.814C151.95 134.643 152.089 136.44 150.983 137.822Z" fill="#F06292"/>
</svg>
