<svg width="144" height="144" viewBox="0 0 144 144" fill="none" xmlns="http://www.w3.org/2000/svg">
<circle cx="72" cy="72" r="72" fill="#484A4A"/>
<path d="M67.6285 68.9525C67.5249 66.1537 68.2505 63.4587 69.8053 61.2819C68.9761 61.0746 68.0432 61.0746 67.0066 61.0746L64.1042 61.2819L56.019 74.0316L59.8543 99.3237C60.5799 103.988 64.8298 107.202 69.4943 106.787C70.0126 106.683 70.4272 106.683 70.9455 106.58C70.2199 105.128 69.8053 103.574 69.7016 101.915L67.6285 68.9525Z" fill="#F06292"/>
<path d="M98.6217 87.4032C100.902 86.4703 103.39 85.952 106.085 85.952C107.329 85.952 108.469 86.0557 109.609 86.263L111.89 71.6475C112.615 66.672 108.987 61.9038 103.908 61.4892L100.488 61.1782C99.5546 61.0746 98.5181 61.1782 97.6888 61.3855C99.2436 63.666 99.9692 66.361 99.8656 69.0561L98.6217 87.4032Z" fill="#F06292"/>
<path d="M93.3352 90.7202L94.6828 68.6415C94.8901 64.7026 91.7804 61.2819 87.8415 61.2819H85.4574C85.872 57.4466 86.8049 52.9894 87.5305 50.9163C88.2561 49.1541 82.3477 48.8432 81.933 50.8126C81.5184 52.3675 80.7928 57.1357 80.4819 61.2819H79.549C75.61 61.2819 72.3967 64.5989 72.7077 68.6415L74.6771 101.5C74.8844 105.128 77.9941 107.927 81.5184 107.927H85.6647C85.9756 107.927 86.2866 107.927 86.5976 107.824C86.4939 107.098 86.3903 106.269 86.3903 105.543C86.4939 99.6347 89.189 94.2446 93.3352 90.7202Z" fill="#F06292"/>
<path d="M43.8913 37.441L59.0251 43.3494C59.2324 43.453 59.647 43.5567 59.8543 43.764L68.0432 35.8861C69.2871 34.7459 68.8724 32.5691 67.3176 31.9472C67.0066 31.8436 66.6957 31.7399 66.3847 31.7399C65.9701 31.7399 65.6591 31.8436 65.2445 32.0509L57.4703 36.4044L59.5434 26.8681C59.7507 25.7278 59.1288 24.5876 58.0922 24.0693L57.7812 23.9657C56.641 23.5511 55.5008 23.9657 54.8789 25.0022L49.9034 33.502L47.1046 25.0022C46.8973 24.2767 46.379 23.7584 45.6535 23.5511C45.3425 23.4474 45.0315 23.3438 44.7206 23.3438C43.4767 23.3438 42.2328 24.484 42.3365 25.9352L43.0621 37.2337C43.373 37.2337 43.684 37.3373 43.8913 37.441Z" fill="#F06292"/>
<path d="M37.1536 70.9219C37.6719 69.6781 39.1231 68.9525 40.4706 69.4707L50.8362 73.617L60.8909 58.1722C63.3786 54.337 61.8238 49.1541 57.4702 47.4957L42.3364 41.5873C38.0865 39.9288 33.3184 42.5202 32.5928 47.081L32.0745 49.9834L45.8607 55.3735C47.1046 55.8918 47.8302 57.343 47.3119 58.6905L47.1046 59.0015C46.69 60.038 45.7571 60.5563 44.7205 60.5563C44.4096 60.5563 44.0986 60.5563 43.7876 60.4527L31.0379 55.4772L26.6844 81.3912L33.2147 83.9826C33.8366 84.1899 34.3549 84.7082 34.6659 85.3301C34.8732 85.9521 34.9769 86.574 34.7695 87.2996L34.6659 87.6106C34.2513 88.6471 33.3184 89.1654 32.2818 89.1654C31.9708 89.1654 31.6599 89.0618 31.3489 89.0618H31.2452L25.7515 86.885L22.8491 103.47C22.1235 107.513 27.41 109.586 29.5867 106.165L47.7266 78.2815L38.3975 74.4462C37.7756 74.2389 37.2573 73.7207 36.9463 73.0987C36.739 72.4768 36.739 71.8548 36.9463 71.1292L37.1536 70.9219Z" fill="#F06292"/>
<path d="M106.085 90.4093C97.7925 90.4093 90.9512 97.1469 90.9512 105.543C90.9512 113.836 97.6888 120.677 106.085 120.677C114.377 120.677 121.219 113.939 121.219 105.543C121.219 97.1469 114.481 90.4093 106.085 90.4093ZM113.237 103.366L106.396 111.555C105.981 112.073 105.359 112.384 104.634 112.384C104.012 112.384 103.39 112.073 102.872 111.555L98.9327 106.891C98.1034 105.958 98.2071 104.507 99.2437 103.781C100.177 102.952 101.628 103.055 102.353 104.092L104.634 106.787L109.817 100.671C110.646 99.7383 111.993 99.6347 112.926 100.36C113.963 100.982 114.066 102.33 113.237 103.366Z" fill="#F06292"/>
</svg>
