<svg xmlns="http://www.w3.org/2000/svg" width="100" height="100" viewBox="0 0 100 100">
    <g>
        <path d="M45.8,47.1c-0.1-2.7,0.6-5.3,2.1-7.4c-0.8-0.2-1.7-0.2-2.7-0.2l-2.8,0.2L34.6,52l3.7,24.4c0.7,4.5,4.8,7.6,9.3,7.2c0.5-0.1,0.9-0.1,1.4-0.2c-0.7-1.4-1.1-2.9-1.2-4.5L45.8,47.1z"/>
        <path d="M75.7,64.9c2.2-0.9,4.6-1.4,7.2-1.4c1.2,0,2.3,0.1,3.4,0.3l2.2-14.1c0.7-4.8-2.8-9.4-7.7-9.8l-3.3-0.3c-0.9-0.1-1.9,0-2.7,0.2c1.5,2.2,2.2,4.8,2.1,7.4L75.7,64.9z"/>
        <path d="M70.6,68.1l1.3-21.3c0.2-3.8-2.8-7.1-6.6-7.1H63c0.4-3.7,1.3-8,2-10c0.7-1.7-5-2-5.4-0.1c-0.4,1.5-1.1,6.1-1.4,10.1h-0.9c-3.8,0-6.9,3.2-6.6,7.1l1.9,31.7c0.2,3.5,3.2,6.2,6.6,6.2h4c0.3,0,0.6,0,0.9-0.1c-0.1-0.7-0.2-1.5-0.2-2.2C64,76.7,66.6,71.5,70.6,68.1z"/>
        <path d="M22.9,16.7l14.6,5.7c0.2,0.1,0.6,0.2,0.8,0.4l7.9-7.6c1.2-1.1,0.8-3.2-0.7-3.8c-0.3-0.1-0.6-0.2-0.9-0.2c-0.4,0-0.7,0.1-1.1,0.3L36,15.7l2-9.2c0.2-1.1-0.4-2.2-1.4-2.7l-0.3-0.1c-1.1-0.4-2.2,0-2.8,1l-4.8,8.2L26,4.7c-0.2-0.7-0.7-1.2-1.4-1.4c-0.3-0.1-0.6-0.2-0.9-0.2c-1.2,0-2.4,1.1-2.3,2.5l0.7,10.9C22.4,16.5,22.7,16.6,22.9,16.7z"/>
        <path d="M16.4,49c0.5-1.2,1.9-1.9,3.2-1.4l10,4l9.7-14.9c2.4-3.7,0.9-8.7-3.3-10.3l-14.6-5.7c-4.1-1.6-8.7,0.9-9.4,5.3l-0.5,2.8L24.8,34c1.2,0.5,1.9,1.9,1.4,3.2L26,37.5c-0.4,1-1.3,1.5-2.3,1.5c-0.3,0-0.6,0-0.9-0.1l-12.3-4.8L6.3,59.1l6.3,2.5c0.6,0.2,1.1,0.7,1.4,1.3c0.2,0.6,0.3,1.2,0.1,1.9l-0.1,0.3c-0.4,1-1.3,1.5-2.3,1.5c-0.3,0-0.6-0.1-0.9-0.1h-0.1l-5.3-2.1l-2.8,16C1.9,84.3,7,86.3,9.1,83l17.5-26.9l-9-3.7c-0.6-0.2-1.1-0.7-1.4-1.3c-0.2-0.6-0.2-1.2,0-1.9L16.4,49z"/>
        <path d="M82.9,67.8c-8,0-14.6,6.5-14.6,14.6c0,8,6.5,14.6,14.6,14.6c8,0,14.6-6.5,14.6-14.6C97.5,74.3,91,67.8,82.9,67.8zM89.8,80.3l-6.6,7.9c-0.4,0.5-1,0.8-1.7,0.8c-0.6,0-1.2-0.3-1.7-0.8l-3.8-4.5c-0.8-0.9-0.7-2.3,0.3-3c0.9-0.8,2.3-0.7,3,0.3l2.2,2.6l5-5.9c0.8-0.9,2.1-1,3-0.3C90.5,78,90.6,79.3,89.8,80.3z"/>
    </g>
</svg>